<svg xmlns="http://www.w3.org/2000/svg" version="1.1" viewBox="-5.0 -10.0 110.0 135.0">
 <path d="m13.75 12.109h72.5c4.8594 0.011719 8.8008 3.9492 8.8086 8.8125v42.457c-0.007813 4.8633-3.9492 8.8008-8.8086 8.8125h-41.621l-17.57 14.809c-0.79297 0.83984-2.0195 1.1094-3.0938 0.68359-1.0703-0.42969-1.7773-1.4688-1.7734-2.625v-12.867h-8.4414c-4.8594-0.011718-8.8008-3.9492-8.8086-8.8125v-42.457c0.007813-4.8633 3.9492-8.8008 8.8086-8.8125zm7.1797 36.441h58.141c0.51953 0 0.94141-0.42188 0.94141-0.94141s-0.42188-0.9375-0.94141-0.9375h-58.141c-0.51953 0-0.94141 0.41797-0.94141 0.9375s0.42188 0.94141 0.94141 0.94141zm0-10.922h58.141c0.51953 0 0.94141-0.41797 0.94141-0.9375 0-0.51953-0.42188-0.94141-0.94141-0.94141h-58.141c-0.51953 0-0.94141 0.42188-0.94141 0.94141 0 0.51953 0.42188 0.9375 0.94141 0.9375zm0 21.828 37.512 0.003907c0.26172 0.027343 0.52734-0.058594 0.72656-0.23828 0.19531-0.17969 0.30859-0.42969 0.30859-0.69922 0-0.26563-0.11328-0.51953-0.30859-0.69531-0.19922-0.17969-0.46484-0.26562-0.72656-0.23828h-37.512c-0.26563-0.027344-0.52734 0.058594-0.72656 0.23828-0.19531 0.17578-0.30859 0.42969-0.30859 0.69531 0 0.26953 0.11328 0.51953 0.30859 0.69922 0.19922 0.17969 0.46094 0.26562 0.72656 0.23828zm0-32.75 58.141 0.003907c0.51953 0 0.94141-0.42188 0.94141-0.94141s-0.42188-0.94141-0.94141-0.94141h-58.141c-0.51953 0-0.94141 0.42188-0.94141 0.94141s0.42188 0.94141 0.94141 0.94141z" fill-rule="evenodd"/>
</svg>